<svg xmlns="http://www.w3.org/2000/svg" width="512" height="512" viewBox="0 0 512 512" version="1.1">
	<path d="M 229 27.689 C 202.015 29.726, 174.960 37.180, 167.632 44.597 C 163.992 48.282, 163 50.930, 163 56.958 C 163 62.631, 163.795 63.167, 170.951 62.319 C 178.764 61.394, 179 61.858, 179 78.172 C 179 93.994, 178.589 95.318, 171.233 103.182 C 165.204 109.628, 157.750 113.979, 145 118.498 C 117.170 128.360, 106.721 138.334, 100.999 160.500 C 99.863 164.900, 98.273 170.197, 97.467 172.270 C 95.452 177.450, 95.567 177.953, 99.051 179.168 C 101.039 179.860, 101.994 180.801, 101.792 181.866 C 101.547 183.152, 99.867 183.607, 93.907 184 C 87.652 184.413, 85.710 184.975, 82.761 187.229 C 78.432 190.536, 75.079 195.739, 74.339 200.297 L 73.791 203.675 171.146 204.231 C 224.690 204.536, 306.300 204.497, 352.500 204.143 L 436.500 203.500 436.179 200.500 C 435.671 195.749, 431.870 189.848, 427.210 186.577 C 423.344 183.863, 422.243 183.585, 416.074 183.771 C 409.943 183.956, 409.172 183.766, 408.696 181.947 C 408.270 180.317, 408.757 179.799, 411.169 179.316 C 415.218 178.506, 415.590 176.916, 413.175 170.738 C 412.048 167.857, 409.935 161.450, 408.478 156.500 C 407.021 151.550, 404.470 145.361, 402.809 142.748 C 396.484 132.795, 384.123 124.575, 365.823 118.153 C 361.051 116.478, 354.789 113.913, 351.907 112.453 C 345.073 108.990, 336.554 100.395, 333.569 93.951 C 331.363 89.190, 331.234 87.976, 331.729 76.665 C 332.023 69.974, 332.713 63.932, 333.263 63.238 C 333.930 62.398, 336.474 62.064, 340.882 62.238 L 347.500 62.500 347.497 56.418 C 347.495 51.326, 347.047 49.750, 344.742 46.729 C 335.969 35.226, 295.114 26.754, 250.500 27.185 C 241.150 27.275, 231.475 27.502, 229 27.689 M 193.226 66.839 C 192.332 67.407, 191.717 72.690, 191.161 84.588 C 190.384 101.201, 190.304 101.650, 187.023 107.806 C 182.643 116.022, 174.934 123.044, 160.371 132.080 C 147.204 140.250, 138.520 148.268, 134.923 155.577 C 132.909 159.669, 132.497 162.019, 132.484 169.500 C 132.475 174.450, 132.167 178.971, 131.800 179.548 C 129.445 183.243, 128.799 183.224, 255.004 183.185 C 334.929 183.160, 377.599 182.801, 378.251 182.149 C 378.901 181.499, 378.914 180.168, 378.288 178.326 C 377.760 176.772, 377.530 172.500, 377.775 168.833 C 378.672 155.466, 372.059 146.668, 350.380 132.385 C 334.284 121.781, 328.264 115.785, 323.326 105.438 C 319.373 97.154, 318.014 89.961, 318.006 77.285 C 318.001 69.202, 317.763 67.943, 316.066 67.035 C 313.738 65.789, 195.179 65.600, 193.226 66.839 M 199.031 71.959 C 197.222 73.104, 197.129 83.529, 198.913 85.313 C 199.798 86.198, 214.070 86.522, 255.064 86.586 C 301.346 86.658, 310.213 86.448, 311.203 85.255 C 312.735 83.409, 312.587 74.412, 310.993 72.492 C 309.923 71.202, 302.341 71.002, 255.128 71.015 C 223.250 71.024, 199.888 71.417, 199.031 71.959 M 242.061 98.087 C 218.420 101.146, 197 114.837, 197 126.888 C 197 136.799, 211.242 147.637, 231.500 153.142 C 238.256 154.979, 242.220 155.322, 257 155.349 C 273.302 155.379, 275.114 155.193, 283.473 152.631 C 316.740 142.431, 324.512 124.263, 302.023 109.267 C 287.722 99.731, 263.809 95.272, 242.061 98.087 M 93.341 210.250 C 95.651 223.457, 105.368 306.788, 118.558 426.500 C 120.498 444.100, 122.593 459.793, 123.214 461.373 C 123.903 463.123, 125.659 464.795, 127.708 465.651 C 129.746 466.503, 131.459 468.129, 132.056 469.778 C 134.070 475.343, 135.429 477.029, 139.479 478.990 C 143.564 480.967, 145.466 481, 256.066 480.978 C 365.335 480.957, 368.621 480.901, 372.792 479.008 C 376.318 477.408, 377.503 476.119, 379.436 471.780 C 381.099 468.049, 382.656 466.129, 384.742 465.234 C 388.935 463.436, 390.108 460.068, 391.104 446.976 C 391.585 440.638, 393.782 418.138, 395.985 396.976 C 398.188 375.814, 402.487 333.750, 405.539 303.500 C 410.162 257.670, 415.022 214.607, 416.224 208.829 C 416.450 207.742, 408.320 207.453, 371.609 207.240 L 326.719 206.979 327.303 211.912 C 327.624 214.624, 329.038 219.114, 330.444 221.889 C 332.906 226.747, 333 227.602, 333 245.039 C 333 260.655, 333.336 264.613, 335.442 273.822 C 336.785 279.695, 339.754 294.624, 342.039 306.999 C 346.803 332.795, 346.940 329.155, 339.897 363.771 C 333.107 397.140, 327.197 410.956, 314.085 424.108 C 308.113 430.099, 304.693 432.580, 298 435.775 C 284.478 442.232, 277.750 443.265, 252.260 442.797 C 231.637 442.419, 230.082 442.254, 222.500 439.636 C 206.667 434.169, 193.604 423.090, 185.134 407.943 C 183.425 404.887, 180.230 396.915, 178.035 390.228 C 173.504 376.430, 165.857 338.534, 165.781 329.500 C 165.752 326.008, 168.181 311.168, 171.592 294 C 177.219 265.684, 177.475 263.717, 177.977 245 C 178.485 226.045, 178.577 225.363, 181.250 220.601 C 183.078 217.345, 184 214.243, 184 211.351 L 184 207 138.387 207 L 92.773 207 93.341 210.250 M 123.655 217.829 C 120.963 220.803, 120.853 219.270, 132.018 334 C 133.703 351.325, 135.714 372.025, 136.486 380 C 138.627 402.116, 139.487 423, 138.257 423 C 137.685 423, 136.947 421.927, 136.618 420.615 C 134.859 413.606, 131.097 379.122, 121.469 281.749 C 118.437 251.086, 115.444 224.874, 114.818 223.499 C 113.557 220.732, 110.265 220.146, 109.351 222.527 C 108.648 224.359, 113.866 277.494, 122.066 352 C 131.460 437.353, 132.172 442.124, 136.413 448.179 C 138.464 451.107, 143.069 453.986, 145.715 453.993 C 148.871 454.003, 149.976 451.172, 149.316 444.771 C 148.795 439.727, 149.011 438.850, 151.621 435.416 C 154.418 431.735, 154.496 431.314, 154.353 420.564 C 154.272 414.479, 152.811 393.975, 151.107 375 C 149.403 356.025, 147.549 335.325, 146.986 329 C 146.423 322.675, 144.396 297.925, 142.480 274 C 140.565 250.075, 138.746 228.590, 138.438 226.255 C 137.631 220.130, 133.857 216, 129.066 216 C 126.697 216, 124.699 216.675, 123.655 217.829 M 375.230 217.551 C 374.012 218.404, 372.554 219.964, 371.990 221.018 C 371.427 222.071, 370.304 231.386, 369.495 241.717 C 368.686 252.047, 367.358 267.250, 366.542 275.500 C 365.726 283.750, 363.686 307.825, 362.007 329 C 360.329 350.175, 358.539 372.225, 358.029 378 C 356.190 398.824, 354.718 426.739, 355.330 429.178 C 355.674 430.547, 357.336 433.406, 359.025 435.531 C 361.845 439.080, 362.042 439.817, 361.446 444.589 C 360.572 451.582, 361.439 454.001, 364.817 453.996 C 371.281 453.987, 376.880 447.398, 379.018 437.283 C 379.574 434.652, 381.579 416.750, 383.474 397.500 C 385.368 378.250, 389.383 337.975, 392.395 308 C 399.149 240.786, 400.518 224.793, 399.701 222.664 C 398.838 220.415, 396.306 220.560, 395.037 222.932 C 393.845 225.158, 390.788 253.199, 384.999 315 C 378.404 385.404, 375.105 415.619, 373.396 421.250 C 373.104 422.212, 372.382 423, 371.791 423 C 370.087 423, 371.785 396.768, 377.035 342 C 382.814 281.711, 387 233.511, 387 227.268 C 387 221.850, 386.637 220.546, 384.545 218.455 C 381.729 215.638, 378.420 215.317, 375.230 217.551 M 212.957 233.637 C 210.231 236.187, 208 238.662, 208 239.137 C 208 239.612, 210.221 240, 212.935 240 C 215.649 240, 219.001 240.430, 220.383 240.955 C 223.699 242.216, 231 248.859, 231 250.616 C 231 252.872, 229.825 252.253, 224.896 247.398 L 220.223 242.795 214.362 247.479 C 197.571 260.894, 195 263.089, 195 264.004 C 195 264.563, 197.853 265, 201.500 265 C 205.075 265, 208 265.170, 208 265.379 C 208 265.587, 206.425 268.373, 204.501 271.569 C 194.423 288.304, 192.824 302.386, 198.775 322 C 203.489 337.539, 200.505 336, 225.913 336 C 244.898 336, 247.932 336.214, 249.110 337.633 C 250.060 338.778, 250.579 343.418, 250.847 353.159 C 251.186 365.523, 251.436 367.163, 253.114 368.061 C 255.847 369.524, 258.612 367.688, 259.368 363.911 C 259.716 362.172, 260 355.454, 260 348.982 C 260 339.174, 260.263 337.113, 261.582 336.607 C 262.452 336.273, 272.791 336, 284.559 336 C 309.447 336, 306.697 337.347, 312.104 322.500 C 315.103 314.264, 315.386 312.481, 315.441 301.500 L 315.500 289.500 311.251 280.655 C 308.913 275.791, 306.101 270.546, 305.001 269.001 C 303.900 267.456, 303 265.923, 303 265.596 C 303 265.268, 305.898 265, 309.441 265 C 312.984 265, 316.132 264.596, 316.437 264.102 C 316.742 263.609, 311.031 258.632, 303.746 253.044 L 290.500 242.882 286.973 246.941 C 283.687 250.722, 281 252.156, 281 250.129 C 281 249.649, 282.732 247.305, 284.849 244.920 C 288.610 240.682, 288.862 240.573, 295.849 240.178 C 300.719 239.903, 303 239.372, 303 238.515 C 303 237.822, 300.985 235.397, 298.522 233.127 L 294.045 229 255.980 229 L 217.914 229 212.957 233.637 M 231.169 265.831 C 227.500 269.500, 221 278.696, 221 280.218 C 221 281.064, 221.646 282.291, 222.436 282.947 C 224.657 284.790, 227.644 282.637, 230.388 277.214 C 235.157 267.791, 235.595 261.405, 231.169 265.831 M 276.407 266.250 C 276.759 267.488, 277.490 270.750, 278.033 273.500 C 279.570 281.291, 284.278 286.569, 287.750 284.393 C 290.935 282.396, 290.238 279.574, 284.798 272.440 C 281.888 268.623, 279.056 265.169, 278.504 264.765 C 276.623 263.389, 275.766 263.996, 276.407 266.250 M 289.025 286.963 C 287.734 287.780, 287.760 288.555, 289.240 293.198 C 291.890 301.514, 291.993 302.264, 291.049 306.362 C 289.849 311.574, 286.375 314.946, 274.205 322.708 C 267.821 326.780, 263.344 330.367, 262.422 332.150 L 260.936 335.025 266.718 334.427 C 277.621 333.299, 291.175 324.677, 296.602 315.417 C 301.456 307.133, 300.900 295.599, 295.325 288.975 C 292.686 285.839, 291.435 285.439, 289.025 286.963 M 202 342.411 C 202 343.187, 203.385 344.987, 205.077 346.411 C 207.722 348.637, 209.101 349, 214.902 349 C 220.624 349, 221.965 349.342, 223.711 351.250 C 224.843 352.488, 226.059 354.456, 226.412 355.624 C 227.193 358.207, 231.568 359.106, 239.409 358.297 L 244.890 357.732 245.558 352.384 C 246.415 345.523, 245.601 342.394, 242.761 341.633 C 241.517 341.300, 231.838 341.021, 221.250 341.014 C 205.338 341.002, 202 341.245, 202 342.411 M 266.553 342.590 C 265.270 343.873, 265.089 345.466, 265.618 350.840 C 265.979 354.503, 266.371 357.621, 266.490 357.770 C 266.609 357.918, 270.328 358.319, 274.755 358.661 L 282.803 359.281 284.522 355.891 C 287.659 349.704, 288.770 349, 295.405 348.996 C 301.853 348.992, 308 346.374, 308 343.631 C 308 341.421, 304.675 341.028, 285.821 341.014 C 270.983 341.002, 267.887 341.255, 266.553 342.590 M 154.673 458.749 C 137.150 458.971, 131.940 459.324, 132.250 460.269 C 132.472 460.946, 133.831 461.640, 135.270 461.811 C 137.244 462.046, 138.163 462.965, 139.020 465.561 C 139.765 467.819, 140.961 469.203, 142.499 469.589 C 146.756 470.658, 148.467 469.711, 149 465.989 L 149.500 462.500 158.344 462.210 L 167.189 461.919 171.572 465.960 L 175.955 470 255.632 470 L 335.310 470 339.115 466 L 342.920 462 351.832 462 L 360.744 462 361.384 466 C 362.001 469.860, 362.158 470, 365.857 470 C 370.116 470, 373 467.672, 373 464.235 C 373 462.599, 373.712 462.056, 376.173 461.813 C 377.918 461.641, 379.506 461.010, 379.702 460.412 C 380.386 458.326, 259.027 457.429, 154.673 458.749" stroke="none" fill="black" fill-rule="evenodd"/>
</svg>